<svg width="156" height="40" viewBox="0 0 156 40" fill="none" xmlns="http://www.w3.org/2000/svg">
<path d="M46.5351 33.793V8.59131H52.3675V33.793H46.5351ZM63.6687 33.793V13.3436H55.6042V8.59131H77.5656V13.3436H69.5011V33.793H63.6687ZM88.0515 34.081C85.8433 34.081 83.8992 33.649 82.2191 32.7849C80.563 31.9208 79.2789 30.7448 78.3668 29.2567C77.4548 27.7446 76.9987 26.0285 76.9987 24.1083C76.9987 22.1642 77.4428 20.4481 78.3308 18.96C79.2429 17.4479 80.479 16.2718 82.0391 15.4318C83.5992 14.5677 85.3633 14.1357 87.3314 14.1357C89.2275 14.1357 90.9317 14.5437 92.4437 15.3598C93.9799 16.1518 95.1919 17.3039 96.08 18.816C96.968 20.3041 97.4121 22.0922 97.4121 24.1803C97.4121 24.3963 97.4001 24.6484 97.3761 24.9364C97.3521 25.2004 97.3281 25.4524 97.3041 25.6924H81.571V22.4162H94.3519L92.1917 23.3883C92.1917 22.3802 91.9877 21.5042 91.5797 20.7601C91.1717 20.0161 90.6076 19.44 89.8876 19.032C89.1675 18.6 88.3275 18.384 87.3674 18.384C86.4074 18.384 85.5553 18.6 84.8112 19.032C84.0912 19.44 83.5272 20.0281 83.1191 20.7961C82.7111 21.5402 82.5071 22.4282 82.5071 23.4603V24.3243C82.5071 25.3804 82.7351 26.3165 83.1911 27.1325C83.6712 27.9246 84.3312 28.5366 85.1713 28.9687C86.0353 29.3767 87.0434 29.5807 88.1955 29.5807C89.2275 29.5807 90.1276 29.4247 90.8956 29.1127C91.6877 28.8006 92.4077 28.3326 93.0558 27.7086L96.044 30.9488C95.1559 31.9568 94.0399 32.7369 92.6958 33.2889C91.3517 33.817 89.8036 34.081 88.0515 34.081ZM110.468 34.081C108.404 34.081 106.568 33.649 104.96 32.7849C103.375 31.9208 102.115 30.7448 101.179 29.2567C100.267 27.7446 99.8112 26.0285 99.8112 24.1083C99.8112 22.1642 100.267 20.4481 101.179 18.96C102.115 17.4479 103.375 16.2718 104.96 15.4318C106.568 14.5677 108.404 14.1357 110.468 14.1357C112.508 14.1357 114.332 14.5677 115.94 15.4318C117.548 16.2718 118.808 17.4359 119.72 18.924C120.633 20.4121 121.089 22.1402 121.089 24.1083C121.089 26.0285 120.633 27.7446 119.72 29.2567C118.808 30.7448 117.548 31.9208 115.94 32.7849C114.332 33.649 112.508 34.081 110.468 34.081ZM110.468 29.4727C111.404 29.4727 112.244 29.2567 112.988 28.8246C113.732 28.3926 114.32 27.7806 114.752 26.9885C115.184 26.1725 115.4 25.2124 115.4 24.1083C115.4 22.9803 115.184 22.0202 114.752 21.2281C114.32 20.4361 113.732 19.824 112.988 19.392C112.244 18.96 111.404 18.744 110.468 18.744C109.532 18.744 108.692 18.96 107.948 19.392C107.204 19.824 106.604 20.4361 106.148 21.2281C105.716 22.0202 105.5 22.9803 105.5 24.1083C105.5 25.2124 105.716 26.1725 106.148 26.9885C106.604 27.7806 107.204 28.3926 107.948 28.8246C108.692 29.2567 109.532 29.4727 110.468 29.4727ZM131.459 34.081C129.803 34.081 128.207 33.889 126.671 33.5049C125.159 33.0969 123.959 32.5929 123.071 31.9929L124.943 27.9606C125.831 28.5126 126.875 28.9687 128.075 29.3287C129.299 29.6647 130.499 29.8327 131.675 29.8327C132.971 29.8327 133.883 29.6767 134.411 29.3647C134.963 29.0527 135.239 28.6206 135.239 28.0686C135.239 27.6126 135.023 27.2765 134.591 27.0605C134.183 26.8205 133.631 26.6405 132.935 26.5205C132.239 26.4005 131.471 26.2805 130.631 26.1605C129.815 26.0405 128.987 25.8844 128.147 25.6924C127.307 25.4764 126.539 25.1644 125.843 24.7564C125.147 24.3483 124.583 23.7963 124.151 23.1003C123.743 22.4042 123.539 21.5042 123.539 20.4001C123.539 19.176 123.887 18.0959 124.583 17.1599C125.303 16.2238 126.335 15.4918 127.679 14.9637C129.023 14.4117 130.631 14.1357 132.503 14.1357C133.823 14.1357 135.167 14.2797 136.535 14.5677C137.904 14.8557 139.044 15.2757 139.956 15.8278L138.084 19.824C137.147 19.272 136.199 18.9 135.239 18.708C134.303 18.492 133.391 18.384 132.503 18.384C131.255 18.384 130.343 18.552 129.767 18.888C129.191 19.224 128.903 19.656 128.903 20.1841C128.903 20.6641 129.107 21.0241 129.515 21.2641C129.947 21.5042 130.511 21.6962 131.207 21.8402C131.903 21.9842 132.659 22.1162 133.475 22.2362C134.315 22.3322 135.155 22.4882 135.995 22.7042C136.835 22.9203 137.592 23.2323 138.264 23.6403C138.96 24.0243 139.524 24.5644 139.956 25.2604C140.388 25.9325 140.604 26.8205 140.604 27.9246C140.604 29.1247 140.244 30.1927 139.524 31.1288C138.804 32.0409 137.76 32.7609 136.391 33.2889C135.047 33.817 133.403 34.081 131.459 34.081Z" fill="#1769AA"/>
<path d="M24.1945 28.6687C25.1647 29.4119 25.8372 30.368 26.127 31.4163C26.4169 32.4646 26.3111 33.558 25.823 34.5583C25.3349 35.5586 24.4864 36.4209 23.3848 37.0363C22.2832 37.6516 20.9778 37.9924 19.6337 38.0155C18.2896 38.0387 16.9671 37.7431 15.8333 37.1662C14.6995 36.5893 13.8053 35.757 13.2637 34.7744C12.7221 33.7919 12.5574 32.7031 12.7904 31.6458C13.0235 30.5885 13.6438 29.6101 14.573 28.8342C14.7205 28.7108 14.8716 28.5901 15.0052 28.4554C16.4495 27.0075 16.3757 25.394 15.0052 24.1144C14.8681 23.9853 14.7205 23.859 14.573 23.7356C13.8085 23.0929 13.2527 22.3105 12.9541 21.4568C12.6555 20.6031 12.6232 19.704 12.86 18.838C13.0967 17.972 13.5954 17.1655 14.3124 16.4889C15.0294 15.8122 15.943 15.286 16.9733 14.9562C18.0036 14.6264 19.1194 14.5031 20.2232 14.5969C21.327 14.6908 22.3852 14.999 23.3054 15.4946C24.2257 15.9903 24.98 16.6583 25.5025 17.4403C26.025 18.2223 26.2998 19.0946 26.3029 19.981C26.31 20.7089 26.1303 21.4303 25.7749 22.1006C25.4195 22.7709 24.896 23.3761 24.2367 23.8787L24.2156 23.8983C22.4585 25.5567 22.5429 27.145 24.2156 28.6687H24.1945Z" fill="#174A73"/>
<path d="M19.5064 12.8652C23.2637 12.8652 26.3096 10.4329 26.3096 7.4326C26.3096 4.43225 23.2637 2 19.5064 2C15.749 2 12.7031 4.43225 12.7031 7.4326C12.7031 10.4329 15.749 12.8652 19.5064 12.8652Z" fill="#1769AA"/>
<path d="M26.3103 19.9799C26.3173 20.7078 26.1376 21.4292 25.7823 22.0995C25.4269 22.7698 24.9034 23.3749 24.244 23.8776L24.223 23.8972C22.6662 25.3648 22.5538 26.7791 23.7064 28.14L14.9212 24.0319C14.8088 23.9309 14.6928 23.8327 14.5698 23.7345C13.808 23.091 13.2547 22.3086 12.9583 21.4553C12.6619 20.6021 12.6314 19.7039 12.8693 18.839C13.1072 17.9741 13.6064 17.1689 14.3234 16.4934C15.0403 15.8178 15.9533 15.2926 16.9827 14.9634C18.0121 14.6342 19.1267 14.511 20.2294 14.6046C21.3321 14.6982 22.3894 15.0058 23.3091 15.5004C24.2289 15.9951 24.9831 16.6618 25.5062 17.4426C26.0293 18.2233 26.3054 19.0944 26.3103 19.9799Z" fill="#1769AA"/>
</svg>
