<svg width="12" height="39" viewBox="0 0 12 39" fill="none" xmlns="http://www.w3.org/2000/svg">
<path d="M10.1383 28.8168C10.993 29.6014 11.5856 30.6108 11.841 31.7174C12.0963 32.8241 12.0031 33.9783 11.5731 35.0344C11.143 36.0902 10.3955 37.0007 9.42489 37.6502C8.4543 38.2997 7.30421 38.6596 6.11998 38.6839C4.93576 38.7082 3.77055 38.3965 2.77162 37.7873C1.77266 37.1785 0.984828 36.2998 0.507643 35.2626C0.0304576 34.2252 -0.114615 33.0758 0.0906875 31.9597C0.296019 30.8435 0.842523 29.8107 1.6612 28.9916C1.79121 28.8613 1.92434 28.7339 2.04201 28.5917C3.31448 27.0632 3.24948 25.3599 2.04201 24.0091C1.92126 23.8728 1.79121 23.7395 1.6612 23.6092C0.987682 22.9307 0.498002 22.1048 0.234915 21.2036C-0.0281716 20.3024 -0.0566552 19.3532 0.151968 18.439C0.360561 17.5249 0.799913 16.6734 1.43164 15.9591C2.06336 15.2448 2.86826 14.6893 3.77603 14.3412C4.6838 13.9931 5.66686 13.8628 6.63934 13.9619C7.61183 14.061 8.54418 14.3863 9.35496 14.9096C10.1658 15.4328 10.8304 16.138 11.2907 16.9636C11.7511 17.7891 11.9932 18.7099 11.9959 19.6456C12.0021 20.4141 11.8438 21.1756 11.5307 21.8832C11.2176 22.5909 10.7564 23.2297 10.1754 23.7603L10.1569 23.781C8.60881 25.5317 8.68311 27.2084 10.1569 28.8168H10.1383Z" fill="#D5D5D5"/>
<path d="M6.00965 12.1535C9.32007 12.1535 12.0037 9.58588 12.0037 6.41854C12.0037 3.25121 9.32007 0.683594 6.00965 0.683594C2.69924 0.683594 0.015625 3.25121 0.015625 6.41854C0.015625 9.58588 2.69924 12.1535 6.00965 12.1535Z" fill="white"/>
<path d="M12.0052 19.6479C12.0114 20.4164 11.8531 21.1779 11.54 21.8855C11.2269 22.5932 10.7657 23.232 10.1847 23.7626L10.1662 23.7833C8.79458 25.3326 8.69552 26.8256 9.71103 28.2623L1.97084 23.9255C1.87176 23.8188 1.76958 23.7152 1.66121 23.6115C0.989994 22.9323 0.502557 22.1063 0.241422 21.2055C-0.0197429 20.3048 -0.0466548 19.3566 0.162958 18.4435C0.3726 17.5305 0.812389 16.6805 1.44408 15.9674C2.07575 15.2543 2.88012 14.6998 3.78708 14.3523C4.69406 14.0047 5.6761 13.8747 6.64762 13.9735C7.61915 14.0723 8.55065 14.397 9.361 14.9192C10.1713 15.4413 10.8359 16.1452 11.2968 16.9694C11.7577 17.7936 12.0009 18.7132 12.0052 19.6479Z" fill="white"/>
</svg>
